<?xml version="1.0" standalone="no"?>
<!DOCTYPE svg PUBLIC "-//W3C//DTD SVG 20010904//EN"
 "http://www.w3.org/TR/2001/REC-SVG-20010904/DTD/svg10.dtd">
<svg version="1.0" xmlns="http://www.w3.org/2000/svg"
 width="358.000000pt" height="358.000000pt" viewBox="0 0 358.000000 358.000000"
 preserveAspectRatio="xMidYMid meet">
<metadata>
Created by potrace 1.11, written by Peter Selinger 2001-2013
</metadata>
<g transform="translate(0.000000,358.000000) scale(0.100000,-0.100000)"
fill="#000000" stroke="none">
<path d="M2690 3038 c0 -5 -6 -8 -14 -5 -8 3 -17 -1 -20 -9 -3 -8 -13 -14 -21
-14 -10 0 -14 5 -10 13 4 6 0 4 -8 -5 -8 -10 -17 -15 -20 -11 -4 3 -7 1 -7 -5
0 -7 -7 -12 -16 -12 -9 0 -13 5 -9 13 4 6 1 5 -7 -4 -7 -9 -23 -15 -35 -14
-17 1 -20 -1 -12 -11 9 -11 4 -11 -20 -4 -22 6 -29 5 -25 -2 4 -6 0 -14 -7
-19 -20 -12 -37 -11 -19 2 13 9 13 10 0 6 -8 -2 -14 -11 -14 -20 1 -13 -2 -14
-18 -6 -16 9 -19 8 -13 -2 6 -9 3 -11 -9 -6 -11 5 -15 3 -10 -5 5 -7 -1 -9
-19 -6 -15 3 -24 2 -22 -3 9 -14 -16 -21 -31 -8 -8 7 -14 8 -13 3 4 -23 -3
-33 -30 -42 -22 -8 -31 -7 -35 1 -2 7 -5 4 -5 -5 -1 -10 -10 -22 -21 -28 -16
-9 -19 -8 -14 7 5 17 5 17 -9 1 -11 -14 -16 -15 -26 -5 -10 9 -11 8 -5 -7 5
-14 3 -17 -7 -14 -20 8 -51 -11 -42 -25 4 -8 2 -8 -9 1 -13 10 -18 10 -24 1
-5 -8 -3 -9 6 -4 9 6 11 4 6 -4 -5 -7 -14 -10 -22 -7 -8 3 -17 -1 -20 -9 -4
-8 -13 -15 -21 -15 -8 0 -11 5 -8 13 4 6 1 5 -7 -3 -7 -9 -24 -16 -38 -16 -14
0 -24 -6 -22 -12 1 -7 -3 -12 -9 -12 -5 0 -8 -4 -5 -9 3 -4 -6 -6 -21 -3 -18
3 -24 1 -19 -7 4 -6 3 -11 -3 -11 -5 0 -12 6 -14 13 -3 7 -6 4 -6 -7 -1 -16
-3 -16 -17 -6 -12 11 -15 11 -12 -1 2 -8 -4 -13 -14 -13 -10 1 -18 -2 -18 -8
0 -5 -4 -7 -9 -4 -5 4 -11 1 -13 -4 -2 -6 -13 -12 -26 -13 -12 -1 -21 -6 -18
-12 2 -6 -5 -12 -15 -12 -12 -1 -17 3 -13 10 3 7 -6 -1 -19 -17 -14 -16 -30
-25 -36 -22 -6 4 -11 2 -11 -4 0 -6 -4 -8 -10 -5 -5 3 -10 1 -10 -5 0 -7 -7
-10 -15 -6 -8 3 -15 1 -15 -5 0 -6 -7 -8 -16 -5 -8 3 -12 2 -9 -4 3 -6 -1 -10
-10 -10 -10 0 -13 5 -9 12 4 7 3 8 -4 4 -7 -4 -12 -14 -12 -22 0 -17 -16 -19
-23 -1 -3 7 -6 5 -6 -5 -1 -10 -5 -18 -10 -18 -5 0 -13 -12 -18 -26 -7 -22
-15 -27 -46 -28 -20 -1 -37 4 -37 9 0 6 -5 3 -10 -5 -9 -13 -10 -13 -10 0 -1
12 -3 12 -14 -2 -15 -21 -30 -24 -21 -5 4 6 0 4 -8 -5 -8 -10 -18 -14 -22 -10
-5 4 -5 -2 -1 -12 5 -16 4 -17 -9 -6 -12 10 -16 9 -21 -4 -3 -9 -10 -16 -16
-16 -5 0 -6 5 -2 11 3 6 -5 3 -20 -6 -14 -9 -24 -20 -21 -24 2 -4 -2 -8 -9 -8
-9 0 -12 7 -8 16 3 9 -5 5 -17 -9 -12 -14 -20 -18 -16 -10 5 12 4 12 -7 -1 -7
-9 -19 -14 -27 -11 -8 3 -11 0 -7 -7 4 -7 0 -11 -12 -11 -11 0 -23 -7 -26 -16
-3 -8 -10 -13 -16 -9 -5 3 -19 0 -32 -6 -47 -25 -58 -29 -74 -29 -14 0 -13 -2
2 -17 15 -16 15 -17 -2 -24 -18 -7 -18 -8 1 -9 12 -1 15 -4 7 -7 -10 -4 -9 -9
5 -20 10 -8 11 -11 3 -7 -13 7 -13 6 0 -12 8 -10 20 -22 27 -26 6 -5 9 -18 5
-30 -3 -13 -1 -19 5 -15 6 4 14 0 17 -9 3 -8 2 -12 -4 -9 -6 3 -10 1 -10 -4 0
-6 6 -11 13 -11 8 0 7 -4 -3 -10 -13 -8 -12 -10 3 -10 15 0 22 -17 18 -42 0
-5 3 -8 9 -8 5 0 10 -7 10 -16 0 -9 5 -12 13 -8 6 4 9 4 5 -1 -4 -4 -2 -15 5
-23 8 -11 8 -14 0 -9 -6 4 -14 3 -18 -3 -3 -5 1 -10 9 -10 9 0 19 -12 22 -27
4 -16 11 -31 16 -34 5 -3 10 -19 11 -36 1 -17 5 -29 10 -26 4 2 7 -3 7 -11 0
-8 8 -20 18 -26 16 -11 16 -11 -1 -6 -9 3 -17 1 -17 -4 0 -6 5 -10 11 -10 5 0
7 -5 4 -10 -4 -6 -1 -9 7 -8 7 2 14 -7 16 -19 2 -13 8 -23 13 -23 5 0 9 -13 9
-30 0 -16 5 -30 10 -30 6 0 10 -7 10 -16 0 -9 8 -23 18 -31 16 -14 16 -14 -1
-9 -25 8 -11 -13 17 -24 19 -8 19 -9 2 -9 -20 -1 -20 -1 0 -17 10 -8 13 -13 7
-9 -20 10 -15 -2 10 -26 20 -20 20 -21 2 -15 -18 5 -18 4 3 -13 23 -20 31 -47
10 -35 -7 4 -3 -3 10 -15 24 -24 29 -46 10 -55 -7 -3 -4 -4 7 -3 15 1 20 -4
19 -20 0 -12 4 -21 9 -20 15 3 26 -60 13 -74 -8 -9 -8 -10 1 -5 7 4 9 -1 6
-14 -3 -12 -12 -19 -22 -18 -9 2 -15 -1 -14 -7 0 -5 -6 -17 -15 -25 -14 -13
-15 -12 -9 4 6 15 5 17 -6 8 -8 -7 -18 -8 -22 -4 -5 4 -5 2 -1 -5 3 -6 2 -14
-4 -18 -5 -3 -10 0 -10 7 0 9 -3 9 -10 -2 -8 -12 -12 -13 -19 -2 -7 11 -9 10
-14 -3 -5 -11 -3 -14 6 -9 8 6 8 3 -1 -8 -8 -9 -20 -14 -28 -11 -8 3 -14 0
-14 -7 0 -8 -9 -11 -24 -8 -16 3 -23 1 -20 -7 3 -7 -2 -15 -11 -19 -9 -3 -13
-2 -10 4 3 6 1 10 -4 10 -6 0 -11 -5 -11 -11 0 -6 -7 -9 -15 -5 -9 3 -15 0
-15 -10 0 -8 -5 -12 -10 -9 -6 3 -22 -3 -36 -14 -30 -23 -49 -28 -38 -8 6 9 5
9 -8 0 -8 -7 -19 -9 -23 -5 -5 4 -5 1 0 -7 6 -11 3 -13 -14 -8 -14 3 -24 0
-27 -8 -3 -8 -12 -11 -20 -8 -8 3 -14 0 -14 -7 0 -6 -4 -8 -10 -5 -5 3 -10 3
-10 -2 0 -10 -243 -9 -259 1 -6 4 -8 12 -5 18 4 6 -1 8 -16 3 -15 -5 -20 -4
-16 4 6 9 -19 16 -46 12 -4 0 -4 7 -1 16 4 11 3 14 -5 9 -7 -4 -12 -3 -12 3 0
5 6 12 13 15 6 3 2 3 -10 0 -25 -6 -30 5 -10 25 10 11 9 13 -6 8 -13 -5 -20 0
-26 16 -5 12 -7 24 -6 27 2 3 -3 11 -11 18 -8 7 -14 9 -14 5 0 -4 -4 -2 -9 6
-6 10 -13 10 -29 2 -11 -6 -27 -8 -35 -5 -8 3 -18 0 -23 -7 -5 -8 -3 -10 6 -4
9 5 11 4 6 -3 -4 -7 -13 -12 -20 -12 -8 0 -19 -7 -26 -15 -9 -11 -16 -12 -25
-5 -9 8 -15 8 -20 0 -4 -6 -14 -9 -22 -5 -14 5 -14 3 -2 -12 10 -12 10 -15 1
-9 -7 4 -19 2 -27 -4 -8 -7 -22 -10 -30 -6 -9 3 -13 2 -10 -4 9 -15 -23 -24
-38 -11 -10 8 -14 7 -14 -4 0 -8 5 -11 10 -8 6 3 7 1 3 -5 -4 -7 -16 -12 -27
-12 -11 0 -32 -8 -47 -17 -27 -17 -27 -17 -12 2 14 19 14 19 -6 2 -11 -9 -25
-14 -29 -10 -5 5 -3 0 4 -10 12 -15 12 -17 -3 -11 -14 5 -16 1 -13 -27 5 -53
45 -116 63 -101 5 4 2 -2 -6 -12 -10 -13 -10 -17 -2 -12 7 4 12 1 12 -9 0 -9
3 -14 8 -12 4 3 14 -2 22 -11 13 -14 12 -15 -4 -9 -16 6 -17 5 -6 -8 7 -8 20
-15 29 -15 14 0 14 -2 1 -10 -11 -7 -11 -10 -2 -10 7 0 10 -4 7 -10 -4 -6 1
-7 12 -3 15 6 16 5 5 -9 -11 -14 -10 -16 7 -11 12 3 21 1 21 -5 0 -17 59 -74
70 -67 5 3 10 1 10 -5 0 -6 4 -9 9 -6 5 3 11 -1 15 -9 3 -8 12 -15 21 -15 8 0
15 -5 15 -11 0 -5 4 -7 10 -4 6 3 10 -2 10 -12 0 -15 2 -16 10 -3 7 11 10 11
10 2 0 -7 4 -11 9 -8 5 4 11 1 13 -6 2 -6 13 -13 24 -14 47 -7 59 -9 64 -14
17 -17 50 -29 50 -19 0 8 4 8 14 0 15 -12 269 -15 262 -2 -2 3 6 7 17 7 34 3
51 8 59 19 5 6 8 6 8 -2 0 -8 6 -8 24 0 13 7 22 15 20 19 -3 5 -1 8 5 8 5 0
12 -6 14 -12 4 -10 6 -10 6 0 1 7 6 10 13 6 7 -5 9 -2 6 8 -4 8 0 15 8 15 7 0
11 -4 8 -9 -3 -5 11 1 30 12 25 13 36 16 37 7 0 -6 5 -1 11 13 6 14 12 20 15
13 3 -10 7 -10 18 0 7 7 11 15 8 20 -2 4 0 7 6 7 5 0 12 -6 14 -12 4 -10 6
-10 6 0 1 7 6 10 11 7 6 -3 10 -1 10 5 0 6 4 8 10 5 12 -7 53 19 43 28 -3 4
-1 7 5 7 7 0 12 -4 12 -10 0 -5 5 -10 11 -10 5 0 7 5 4 10 -3 6 1 10 10 10 8
0 18 7 21 15 4 8 10 13 15 10 9 -6 49 14 61 30 5 6 8 6 8 -2 0 -14 56 13 78
37 7 8 11 9 7 3 -4 -9 -1 -11 9 -7 9 3 16 14 16 23 0 13 2 13 9 2 6 -9 11 -10
15 -2 4 6 12 9 17 6 5 -4 9 -2 9 4 0 5 9 8 20 6 11 -2 19 -1 16 3 -2 4 7 12
20 19 18 8 22 8 18 0 -4 -7 3 -2 15 10 24 25 36 30 25 11 -4 -7 2 -5 13 5 11
9 23 14 26 10 4 -3 7 0 7 8 0 11 2 11 10 -1 8 -13 10 -12 10 4 0 11 3 16 7 13
3 -4 12 -2 20 5 11 9 12 7 6 -8 -6 -16 -5 -17 9 -4 9 8 14 18 12 21 -2 4 3 9
11 13 8 3 15 0 16 -7 0 -7 5 -1 10 13 8 18 12 21 18 11 5 -8 10 -9 12 -3 2 6
16 12 31 14 16 2 35 13 44 23 8 11 12 13 8 5 -7 -12 -5 -13 8 -3 8 7 19 9 23
5 5 -4 6 0 3 9 -4 9 -1 16 8 16 7 0 11 -5 7 -11 -3 -6 7 3 21 19 19 22 24 25
20 10 -5 -17 -3 -16 14 5 11 13 20 27 20 30 -2 21 5 30 22 30 11 0 20 -5 20
-11 0 -8 5 -8 15 1 12 10 15 10 15 0 0 -10 3 -10 14 -1 11 9 15 9 19 -1 4 -11
6 -10 6 0 1 7 6 10 11 7 6 -3 10 -1 10 5 0 6 4 9 9 6 5 -4 12 0 14 6 4 10 6
10 6 1 2 -21 21 -14 21 7 0 11 5 20 10 20 6 0 10 -4 10 -10 0 -5 5 -10 11 -10
5 0 8 4 5 8 -3 5 13 18 35 30 22 12 37 16 33 9 -4 -7 1 -5 12 4 10 9 25 14 33
11 9 -3 11 0 6 8 -6 9 -4 11 4 6 7 -5 19 0 27 10 9 11 13 14 10 7 -5 -8 0 -8
18 0 13 7 22 16 18 22 -3 5 3 3 13 -5 17 -14 18 -13 12 4 -5 14 -3 17 8 13 8
-4 17 -2 20 3 4 6 15 10 26 10 10 0 19 6 19 13 0 8 3 7 10 -3 7 -12 11 -10 19
10 5 14 10 20 10 13 1 -7 8 -10 16 -7 8 4 13 10 10 14 -3 5 -1 11 5 15 5 3 10
0 10 -7 0 -9 3 -9 10 2 9 13 10 13 11 0 0 -10 3 -9 8 4 4 11 20 21 37 23 16 3
32 10 36 16 6 9 8 9 8 -1 0 -10 4 -9 16 3 9 9 23 14 31 11 8 -3 12 -2 10 2 -9
13 19 32 48 32 8 0 13 6 11 13 -1 6 -1 9 1 5 3 -5 11 -8 19 -8 9 0 13 4 10 9
-3 4 6 7 19 5 14 -1 23 2 19 7 -3 5 2 9 10 9 9 0 16 6 16 13 0 8 3 7 10 -3 8
-12 10 -12 15 2 4 9 13 19 21 22 10 4 13 1 9 -7 -4 -6 0 -4 8 5 8 10 17 15 20
11 4 -3 7 -1 7 4 0 6 8 10 18 9 9 -2 22 4 29 13 9 11 12 12 13 3 0 -7 5 -10
10 -7 6 4 8 11 4 16 -3 6 0 10 7 9 24 -4 59 12 52 23 -4 6 0 8 10 4 9 -3 16
-3 16 1 -3 19 2 25 11 12 8 -13 10 -13 10 1 0 9 7 20 16 23 10 4 13 1 9 -7 -3
-6 2 -2 11 11 17 23 41 31 28 10 -5 -8 -1 -8 10 1 10 8 15 23 12 33 -3 15 -1
17 8 9 9 -8 19 -4 37 15 20 22 21 24 4 18 -17 -7 -18 -6 -5 8 8 8 21 15 29 14
7 -1 16 6 18 14 4 13 3 13 -6 0 -6 -8 -11 -10 -11 -5 0 6 10 19 22 29 20 18
21 18 14 0 -6 -15 -2 -14 18 5 20 19 23 27 14 38 -8 10 -7 12 5 8 8 -4 18 -1
23 6 5 8 3 10 -7 5 -8 -5 1 4 19 19 18 15 29 31 26 36 -3 6 2 17 12 24 15 11
16 14 4 15 -13 0 -13 2 -1 9 8 5 11 16 8 26 -5 11 -3 14 5 9 8 -5 9 -1 4 12
-4 10 -4 15 0 11 4 -4 12 3 19 16 8 15 8 24 1 29 -7 5 -7 8 2 8 6 0 12 9 12
19 0 11 6 22 13 24 9 4 9 6 -1 6 -8 1 -10 6 -5 14 12 19 14 37 13 132 -1 58
-5 92 -13 97 -9 6 -8 8 3 8 13 0 13 2 1 9 -8 5 -11 16 -8 25 4 9 3 15 -1 15
-19 -3 -23 2 -12 16 10 12 9 15 -6 16 -11 0 -13 3 -7 6 9 3 10 10 3 24 -6 10
-7 19 -3 19 4 0 1 5 -7 10 -11 7 -12 10 -2 10 10 0 9 4 -3 16 -9 9 -14 22 -12
28 5 12 -18 38 -25 30 -3 -2 -5 3 -5 11 0 8 4 12 8 10 4 -3 2 6 -4 20 -7 14
-15 25 -19 25 -4 0 -5 7 -2 15 5 12 2 14 -12 8 -17 -6 -18 -5 -4 12 8 10 10
16 5 13 -6 -4 -17 2 -24 14 -10 16 -10 19 1 12 10 -6 10 -4 -1 9 -7 9 -18 14
-25 10 -6 -4 -4 2 4 12 9 11 10 16 3 11 -8 -4 -13 -2 -13 4 0 6 -4 8 -10 5 -5
-3 -10 4 -10 15 0 17 -4 21 -17 16 -10 -4 -14 -4 -11 -1 9 10 -35 54 -46 47
-5 -3 -7 2 -3 11 4 11 1 17 -8 17 -8 0 -15 5 -15 11 0 5 -5 7 -12 3 -8 -5 -9
-2 -4 12 4 10 4 15 0 11 -12 -12 -33 13 -27 31 6 15 4 15 -9 4 -10 -8 -19 -9
-22 -3 -3 5 0 12 6 15 7 3 1 5 -13 3 -22 -3 -26 0 -23 17 3 12 2 15 -2 9 -4
-10 -9 -9 -21 3 -9 8 -21 13 -27 11 -7 -3 -20 1 -30 8 -10 8 -25 11 -34 8 -10
-4 -13 -2 -8 5 4 7 3 12 -3 12 -5 0 -12 -6 -14 -12 -4 -10 -6 -10 -6 0 -1 6
-8 12 -17 12 -9 0 -12 5 -8 13 5 7 0 6 -11 -3 -10 -8 -16 -10 -12 -3 6 9 -28
12 -138 12 -94 0 -145 -4 -145 -11z m112 -460 c6 -10 8 -10 8 0 0 6 5 12 11
12 5 0 7 -5 3 -12 -5 -8 -2 -9 9 -5 10 3 17 2 17 -4 0 -6 5 -7 10 -4 6 4 17 1
25 -5 8 -7 15 -9 15 -4 0 4 6 -1 14 -11 8 -11 12 -24 8 -30 -3 -5 2 -4 11 4
15 12 17 11 17 -8 0 -18 9 -25 31 -23 3 0 11 -8 18 -20 7 -11 8 -17 2 -13 -6
3 -11 2 -11 -3 0 -6 7 -13 16 -16 10 -4 14 -12 10 -22 -4 -11 -2 -15 8 -11 10
4 13 -1 11 -18 -1 -14 2 -22 6 -19 5 3 9 -7 9 -21 0 -17 4 -24 12 -19 8 5 9 2
5 -9 -4 -10 -2 -28 3 -42 7 -18 6 -25 -3 -25 -7 0 -8 -3 -2 -8 13 -9 13 -72 0
-72 -5 0 -5 -4 2 -8 10 -6 9 -14 -2 -35 -8 -15 -10 -25 -5 -22 6 4 10 1 10 -4
0 -6 -7 -11 -15 -11 -8 0 -12 -6 -9 -14 3 -8 0 -17 -7 -22 -8 -5 -10 -3 -4 6
5 8 4 11 -3 7 -5 -4 -8 -17 -4 -29 3 -14 2 -19 -6 -14 -7 4 -12 2 -12 -3 0 -6
5 -11 12 -11 6 0 8 -3 5 -6 -4 -4 -14 -1 -24 7 -11 9 -14 10 -9 2 4 -8 2 -13
-4 -13 -6 0 -8 -5 -4 -12 5 -8 2 -9 -9 -5 -19 7 -32 -8 -16 -19 8 -5 9 -3 4 6
-6 9 -4 11 5 5 10 -6 10 -11 -3 -20 -9 -7 -14 -14 -12 -17 3 -3 -8 -4 -25 -3
-16 1 -27 -2 -25 -6 7 -11 -38 -36 -62 -34 -12 1 -20 -2 -17 -7 3 -4 0 -8 -6
-8 -6 0 -9 -4 -6 -9 4 -5 -4 -7 -16 -3 -15 4 -19 2 -14 -7 5 -8 3 -11 -7 -9
-9 2 -23 -6 -31 -17 -13 -16 -15 -17 -10 -2 5 13 2 16 -10 11 -8 -3 -15 -9
-14 -12 2 -20 -4 -23 -19 -11 -14 12 -16 12 -8 0 6 -11 4 -13 -9 -8 -10 4 -15
3 -11 -3 3 -5 -4 -14 -15 -20 -15 -8 -20 -8 -20 2 0 8 -5 6 -11 -4 -5 -10 -17
-18 -25 -18 -9 0 -12 5 -8 12 4 7 3 8 -4 4 -7 -4 -12 -14 -12 -22 0 -8 -5 -14
-11 -14 -5 0 -7 4 -4 10 3 6 -1 7 -9 4 -9 -3 -14 -10 -11 -14 3 -5 1 -11 -4
-14 -5 -4 -12 -2 -16 4 -9 14 -28 1 -22 -14 4 -9 -4 -12 -23 -11 -20 1 -27 -2
-23 -12 3 -7 0 -13 -6 -13 -6 0 -11 6 -12 13 0 9 -2 9 -6 0 -7 -19 -33 -16
-50 5 -8 9 -11 11 -7 3 5 -10 3 -12 -5 -7 -7 5 -10 14 -7 22 3 7 -1 20 -9 27
-11 11 -11 17 -2 27 9 10 9 11 0 6 -8 -4 -13 -1 -13 8 0 9 -4 16 -9 16 -5 0
-12 7 -15 16 -3 8 -2 12 3 9 5 -3 13 -1 16 5 4 6 1 9 -7 8 -7 -2 -12 5 -11 15
0 10 -1 16 -4 13 -3 -3 -11 1 -18 7 -10 9 -10 16 -2 27 6 8 7 12 3 8 -11 -10
-38 41 -32 59 3 7 -1 13 -11 13 -13 0 -13 3 -3 16 11 12 11 15 -1 12 -8 -2
-13 3 -11 10 1 6 -3 12 -9 12 -6 0 -9 6 -6 13 2 6 -3 20 -11 30 -13 15 -14 20
-3 26 10 6 8 10 -6 16 -10 5 -22 7 -26 6 -5 -1 -6 3 -2 9 3 6 10 8 14 6 4 -3
8 1 8 9 0 8 -3 14 -6 13 -18 -2 -31 3 -31 13 0 5 6 7 13 3 9 -6 9 -4 -1 8 -7
9 -15 29 -18 45 -3 15 -10 33 -16 38 -8 7 -9 6 -3 -4 6 -10 4 -12 -4 -7 -7 5
-10 15 -7 23 3 8 1 23 -4 33 -8 15 -6 21 7 29 11 6 13 11 5 11 -10 0 -10 3 0
14 10 11 16 11 27 2 12 -8 13 -8 7 2 -4 7 -1 12 9 12 9 0 28 9 41 19 14 11 34
18 44 16 13 -2 20 2 20 11 0 8 10 14 26 14 14 0 23 4 19 10 -3 6 -1 10 4 10 6
0 11 -5 11 -10 0 -6 10 -2 22 10 15 13 25 17 32 10 5 -5 15 -10 21 -10 5 0 3
5 -5 10 -13 8 -13 10 2 10 9 0 21 8 26 17 6 9 17 18 26 19 9 1 13 -2 10 -8 -9
-14 38 14 53 32 11 13 12 13 7 -3 -6 -17 -4 -17 30 2 25 14 36 17 37 8 0 -9 2
-9 6 1 2 6 9 10 14 7 5 -4 6 2 2 11 -5 13 -2 16 9 12 8 -4 20 -3 25 0 19 12
146 3 155 -10z m678 -692 c0 -2 -7 -9 -15 -16 -13 -11 -14 -10 -9 4 5 14 24
23 24 12z m-60 -82 c0 -8 -19 -13 -24 -6 -3 5 1 9 9 9 8 0 15 -2 15 -3z m-115
-103 c3 -5 2 -12 -3 -15 -5 -3 -9 1 -9 9 0 17 3 19 12 6z"/>
<path d="M2220 2410 c-8 -5 -12 -12 -9 -15 4 -3 12 1 19 10 14 17 11 19 -10 5z"/>
<path d="M2925 1950 c-3 -6 1 -7 9 -4 18 7 21 14 7 14 -6 0 -13 -4 -16 -10z"/>
<path d="M1137 3017 c4 -6 -1 -8 -11 -4 -9 4 -15 3 -13 -1 3 -4 -1 -13 -9 -20
-12 -11 -14 -10 -15 5 0 11 -3 13 -6 5 -2 -6 -9 -10 -14 -7 -5 4 -6 -2 -2 -11
5 -14 2 -16 -20 -12 -15 3 -24 1 -21 -4 9 -15 -27 -36 -57 -34 -15 1 -26 -1
-23 -5 6 -10 -33 -22 -45 -14 -5 3 -13 0 -17 -6 -4 -8 -3 -9 4 -5 7 4 12 5 12
2 0 -3 -9 -10 -20 -16 -16 -9 -19 -8 -13 6 4 12 3 15 -5 10 -7 -4 -12 -14 -12
-23 0 -10 -6 -14 -20 -10 -11 3 -23 0 -27 -5 -3 -7 -1 -8 5 -4 7 4 12 5 12 2
0 -6 -56 -36 -67 -36 -4 0 -1 5 7 10 10 7 11 10 2 10 -7 0 -15 -7 -18 -15 -4
-8 -14 -15 -23 -15 -14 0 -14 -2 -1 -10 8 -5 10 -10 4 -10 -6 0 -11 -7 -11
-15 0 -16 12 -20 20 -7 2 4 2 1 0 -7 -2 -8 2 -18 9 -23 10 -8 10 -11 1 -15 -7
-2 -13 -10 -13 -16 0 -8 4 -7 12 1 18 18 31 14 25 -7 -3 -11 5 -29 19 -44 13
-15 24 -36 24 -48 0 -12 8 -28 18 -36 16 -14 16 -14 -3 -9 -20 6 -20 6 -1 -9
11 -8 23 -15 27 -15 3 0 5 -11 4 -25 -2 -17 2 -25 13 -25 13 0 12 -3 -4 -16
-10 -8 -14 -13 -8 -10 6 3 17 -6 25 -20 11 -22 11 -27 -1 -35 -12 -8 -11 -9 5
-7 15 2 20 -3 19 -19 0 -12 2 -22 5 -21 19 2 24 -4 11 -13 -13 -9 -13 -10 1
-6 9 3 21 1 27 -5 6 -6 12 -6 17 3 5 8 4 10 -3 5 -7 -4 -12 -2 -12 5 0 6 8 9
20 6 11 -3 20 -1 20 4 0 5 5 9 11 9 5 0 7 -6 4 -12 -4 -7 0 -5 8 4 8 10 23 19
33 21 33 7 54 19 48 28 -3 5 4 9 15 9 12 0 21 5 21 11 0 6 7 9 15 5 8 -3 15
-1 15 5 0 6 5 7 11 4 6 -4 17 1 25 11 9 11 13 14 10 7 -4 -6 -2 -14 3 -17 5
-4 13 3 16 14 5 17 9 19 21 9 8 -6 17 -9 21 -5 3 3 1 6 -5 6 -7 0 -12 4 -12 9
0 5 13 8 29 7 17 -1 28 1 26 4 -2 3 0 12 6 20 7 13 9 13 9 0 1 -12 2 -12 10 2
6 9 18 14 29 11 10 -3 22 0 25 6 4 6 3 11 -3 11 -9 0 -27 56 -23 73 2 6 -12
11 -29 9 -3 -1 -4 9 -2 22 3 13 0 27 -6 30 -6 4 -11 16 -11 27 0 10 -5 19 -11
19 -5 0 -8 4 -4 9 3 5 -1 15 -8 23 -19 19 -30 51 -14 42 6 -4 3 3 -8 16 -11
13 -15 21 -9 17 6 -3 11 0 11 7 0 9 -7 12 -16 8 -13 -5 -14 -3 -3 10 11 13 10
16 -4 14 -11 0 -18 7 -19 21 -1 13 3 20 9 17 6 -3 3 1 -6 9 -14 11 -15 16 -5
27 9 10 9 11 0 6 -13 -7 -17 4 -14 32 1 7 -5 20 -14 28 -13 14 -18 14 -32 2
-9 -7 -14 -8 -10 -2 3 6 0 11 -8 11 -8 0 -11 -5 -8 -10z"/>
<path d="M990 2949 c0 -5 5 -7 10 -4 6 3 10 8 10 11 0 2 -4 4 -10 4 -5 0 -10
-5 -10 -11z"/>
<path d="M2255 2880 c-3 -5 -1 -10 4 -10 6 0 11 5 11 10 0 6 -2 10 -4 10 -3 0
-8 -4 -11 -10z"/>
<path d="M2520 1241 c0 -8 -7 -11 -20 -8 -11 3 -18 0 -17 -6 1 -6 -4 -11 -11
-12 -7 0 -17 -7 -23 -15 -8 -11 -12 -12 -16 -2 -2 6 -9 12 -14 12 -6 0 -7 -4
-4 -10 3 -5 -1 -10 -9 -10 -9 0 -16 -3 -16 -7 0 -5 -11 -13 -25 -20 -19 -8
-23 -8 -19 0 4 7 -3 1 -16 -11 -18 -19 -24 -21 -31 -10 -6 10 -9 10 -9 1 0 -7
-7 -13 -15 -13 -8 0 -15 -6 -15 -12 0 -9 -4 -8 -10 2 -5 8 -10 10 -10 4 0 -7
-11 -15 -25 -18 -14 -4 -23 -11 -20 -17 4 -6 -4 -8 -19 -5 -15 3 -24 1 -21 -5
6 -8 -9 -13 -29 -10 -5 1 -3 -5 4 -14 11 -13 10 -15 -3 -10 -17 7 -19 -25 -2
-37 6 -5 5 -8 -3 -8 -8 0 -6 -7 6 -20 11 -12 19 -31 18 -43 -1 -12 5 -27 14
-34 10 -9 11 -12 3 -13 -7 0 -13 -5 -13 -11 0 -5 4 -8 9 -5 5 3 14 -1 21 -9 9
-11 10 -15 1 -15 -7 0 -3 -13 10 -32 13 -17 18 -28 11 -24 -9 6 -10 2 0 -18 6
-14 15 -26 20 -26 5 0 7 -4 4 -9 -4 -5 -1 -11 6 -13 6 -2 13 -15 15 -29 9 -61
19 -83 34 -74 5 4 9 -1 9 -10 0 -10 -5 -13 -12 -9 -8 4 -10 3 -5 -2 12 -13 60
-12 69 0 5 7 8 6 8 -3 0 -9 7 -6 20 9 11 13 20 18 20 12 0 -7 12 -5 33 7 17
10 38 16 45 13 7 -2 12 0 11 5 -3 20 2 27 11 13 8 -13 11 -11 16 7 4 13 10 20
15 17 5 -3 6 -10 3 -16 -4 -7 -2 -8 5 -4 6 4 9 12 6 17 -4 5 1 10 9 10 29 3
34 4 41 11 4 4 14 4 23 1 10 -4 13 -2 8 5 -6 11 5 17 27 13 4 0 7 7 7 16 0 10
4 14 8 8 9 -13 35 -19 28 -6 -3 5 7 14 23 21 25 10 28 16 26 52 -2 22 -9 44
-17 49 -11 7 -10 9 1 9 11 0 10 4 -4 14 -10 7 -20 26 -22 42 -3 16 -10 32 -16
36 -9 6 -8 8 2 8 9 0 7 6 -7 19 -12 10 -22 26 -22 35 0 9 -6 16 -12 16 -9 0
-8 4 2 10 8 5 11 10 5 10 -16 0 -35 49 -22 57 6 4 1 10 -12 15 -20 7 -22 10
-10 25 10 12 10 14 2 9 -8 -4 -13 -1 -13 8 0 9 -6 16 -12 16 -9 0 -8 4 2 10
13 8 13 10 -2 10 -11 0 -15 6 -11 20 4 14 0 20 -11 20 -9 0 -16 -6 -16 -12 0
-9 -4 -8 -10 2 -8 12 -10 12 -10 1z"/>
<path d="M1015 1080 c-3 -5 -1 -10 4 -10 6 0 11 5 11 10 0 6 -2 10 -4 10 -3 0
-8 -4 -11 -10z"/>
</g>
</svg>
